<svg xmlns="http://www.w3.org/2000/svg" viewBox="0 0 100 100" width="100" height="100" fill="#E75D5D">
  <path d="M 26.5 6 L 23.5 6 C 17.87 6 13 9.93 13 15.5 L 13 38.5 C 13 39.56 12.41 40.5 11.5 40.5 L 9 40.5 C 8.17 40.5 7.5 41.17 7.5 42 C 7.5 42.83 8.17 43.5 9 43.5 L 11.5 43.5 L 11.5 46 L 88.5 46 L 88.5 43.5 L 91 43.5 C 91.83 43.5 92.5 42.83 92.5 42 C 92.5 41.17 91.83 40.5 91 40.5 L 88.5 40.5 C 87.59 40.5 87 39.56 87 38.5 L 87 15.5 C 87 9.93 82.13 6 76.5 6 L 73.5 6 L 73.5 4.5 C 73.5 3.12 72.38 2 71 2 L 29 2 C 27.62 2 26.5 3.12 26.5 4.5 Z M 21.5 15.5 C 21.5 12.36 24.36 9.5 27.5 9.5 L 28 9.5 L 28 8 L 72 8 L 72 9.5 L 72.5 9.5 C 75.64 9.5 78.5 12.36 78.5 15.5 L 78.5 38.5 C 78.5 40.46 76.96 42 75 42 L 25 42 C 23.04 42 21.5 40.46 21.5 38.5 Z M 25.5 15.5 C 25.5 17.43 27.07 19 29 19 L 71 19 C 72.93 19 74.5 17.43 74.5 15.5 L 74.5 38.5 C 74.5 36.57 72.93 35 71 35 L 29 35 C 27.07 35 25.5 36.57 25.5 38.5 Z"/>
</svg>
