<svg xmlns="http://www.w3.org/2000/svg" viewBox="-3 -3 305 88"><g id="deeditor_bgCarrier" stroke-width="0">
    <rect id="dee_c_e" x="-3" y="-3" width="305" height="88" rx="0" fill="#c4dbbc" strokewidth="0"/>
  </g><defs fill="#000000"><style>.cls-1{fill:#12a9f0;}.cls-2{fill:#fff;}</style></defs><title>Asset 74</title><g id="Layer_2" data-name="Layer 2"><g id="Layer_1-2" data-name="Layer 1"><path class="cls-1" d="M14.89,16.44H0V4H44.66V16.44H29.77V60.24H14.89Z" fill="#000000"/><path class="cls-1" d="M58.16,15.92C71,15.92,77,25.27,77,36.87a27,27,0,0,1-.61,5.89H51.75c1.38,5.54,5.19,7.27,10,7.27a17.77,17.77,0,0,0,8.83-2.6l4.85,8.83a29.15,29.15,0,0,1-15.75,5C47.08,61.28,37.39,53,37.39,38.6,37.39,24.58,47.6,15.92,58.16,15.92Zm6.23,17.83c0-3.64-1.38-6.58-5.89-6.58-3.29,0-6.06,1.82-6.92,6.58Z" fill="#000000"/><path class="cls-1" d="M81.69,0H96.58V45.52c0,2.94,1.38,3.81,2.42,3.81a5.34,5.34,0,0,0,1.56-.17l1.73,10.91A18.41,18.41,0,0,1,95,61.28C85,61.28,81.69,54.7,81.69,45Z" fill="#000000"/><path class="cls-1" d="M122.54,15.92c12.81,0,18.87,9.35,18.87,20.94a27,27,0,0,1-.61,5.89H116.14c1.38,5.54,5.19,7.27,10,7.27a17.77,17.77,0,0,0,8.83-2.6l4.85,8.83a29.15,29.15,0,0,1-15.75,5c-12.64,0-22.33-8.31-22.33-22.68C101.77,24.58,112,15.92,122.54,15.92Zm6.23,17.83c0-3.64-1.38-6.58-5.89-6.58-3.29,0-6.06,1.82-6.92,6.58Z" fill="#000000"/><path class="cls-1" d="M146.08,17H158.2l1,5.28h.35c3.46-3.38,7.1-6.32,13-6.32s9.61,2.42,11.94,6.92c3.55-3.64,7.44-6.92,13.33-6.92,9.52,0,13.67,6.92,13.67,17.66V60.24H196.62V35.48c0-5.54-1.38-6.92-4.33-6.92-1.73,0-3.81,1-6.06,3.29V60.24H171.35V35.48c0-5.54-1.38-6.92-4.33-6.92-1.73,0-3.81,1-6.06,3.29V60.24H146.08Z" fill="#000000"/><path class="cls-1" d="M217.73,0h14.54V32h.35L244.56,17h16.1L245.26,35l16.27,25.27h-16.1l-8.65-15.41-4.5,5V60.24H217.73Z" fill="#000000"/><path class="cls-1" d="M278.14,15.92c11.08,0,21.46,8.31,21.46,22.68s-10.39,22.68-21.46,22.68S256.68,53,256.68,38.6,267.06,15.92,278.14,15.92Zm0,33.41c4.5,0,6.23-4.15,6.23-10.73s-1.73-10.73-6.23-10.73S271.91,32,271.91,38.6,273.64,49.33,278.14,49.33Z" fill="#000000"/><path class="cls-2" d="M15.89,73.7h1.74l1.62,4.41.59,1.7h.05l.59-1.7,1.58-4.41h1.75v9H22.32v-4.1c0-.84.12-2,.21-2.85h-.05l-.73,2L20.2,81.82h-.73l-1.55-4.07-.71-2h-.05c.07.82.19,2,.19,2.85v4.1H15.89Z" fill="#000000"/><path class="cls-2" d="M35.17,78.14c0-2.89,1.62-4.6,4-4.6s3.95,1.71,3.95,4.6-1.62,4.69-3.95,4.69S35.17,81,35.17,78.14Zm6.28,0c0-2-.92-3.22-2.32-3.22s-2.33,1.22-2.33,3.22.92,3.3,2.33,3.3S41.45,80.15,41.45,78.14Z" fill="#000000"/><path class="cls-2" d="M54.44,73.7h1.63l2.78,5,.93,1.9h.05c-.08-.92-.21-2.06-.21-3.06V73.7h1.51v9H59.51l-2.78-5-.93-1.9h-.06c.08.95.21,2,.21,3v3.92H54.44Z" fill="#000000"/><path class="cls-2" d="M73,73.7h1.59v9H73Z" fill="#000000"/><path class="cls-2" d="M88.2,75H85.61V73.7h6.76V75H89.79v7.62H88.2Z" fill="#000000"/><path class="cls-2" d="M102.59,78.14c0-2.89,1.62-4.6,4-4.6s3.95,1.71,3.95,4.6-1.62,4.69-3.95,4.69S102.59,81,102.59,78.14Zm6.28,0c0-2-.92-3.22-2.32-3.22s-2.33,1.22-2.33,3.22.92,3.3,2.33,3.3S108.87,80.15,108.87,78.14Z" fill="#000000"/><path class="cls-2" d="M126.73,82.66l-1.93-3.51h-1.36v3.51h-1.59v-9h3c1.86,0,3.3.66,3.3,2.66a2.5,2.5,0,0,1-1.79,2.56l2.14,3.74Zm-3.29-4.77h1.26c1.23,0,1.89-.52,1.89-1.53S125.94,75,124.71,75h-1.26Z" fill="#000000"/><path class="cls-2" d="M139.61,73.7h1.59v9h-1.59Z" fill="#000000"/><path class="cls-2" d="M153,73.7h1.63l2.78,5,.93,1.9h.05c-.08-.92-.21-2.06-.21-3.06V73.7h1.51v9H158.1l-2.78-5-.93-1.9h-.05c.08.95.21,2,.21,3v3.92H153Z" fill="#000000"/><path class="cls-2" d="M175.36,73.53A3.64,3.64,0,0,1,178,74.67l-.88,1a2.34,2.34,0,0,0-1.78-.74c-1.59,0-2.66,1.23-2.66,3.25s1,3.27,2.75,3.27a2,2,0,0,0,1.27-.4V79.11h-1.69v-1.3h3.11v3.95a4.34,4.34,0,0,1-2.89,1.07c-2.38,0-4.19-1.64-4.19-4.62S173,73.53,175.36,73.53Z" fill="#000000"/><path class="cls-2" d="M206.26,80.23h-3l-.7,2.43h-1.63l2.93-9h1.86l2.92,9H207ZM205.91,79l-.31-1.1c-.27-.95-.55-2-.81-3h-.05c-.25,1-.51,2-.79,3l-.32,1.1Z" fill="#000000"/><path class="cls-2" d="M219.61,80.42a3.57,3.57,0,0,0,2.34,1c1,0,1.56-.45,1.56-1.15s-.58-1-1.4-1.32l-1.22-.53a2.57,2.57,0,0,1-1.81-2.38,2.72,2.72,0,0,1,3-2.52,4,4,0,0,1,2.77,1.14l-.82,1a2.89,2.89,0,0,0-1.95-.77c-.85,0-1.4.4-1.4,1.06s.69,1,1.43,1.26l1.21.51a2.49,2.49,0,0,1,1.81,2.43c0,1.45-1.21,2.66-3.22,2.66a4.61,4.61,0,0,1-3.22-1.32Z" fill="#000000"/><path class="cls-2" d="M236.41,80.42a3.57,3.57,0,0,0,2.34,1c1,0,1.56-.45,1.56-1.15s-.58-1-1.4-1.32l-1.22-.53a2.57,2.57,0,0,1-1.81-2.38,2.72,2.72,0,0,1,3-2.52,4,4,0,0,1,2.77,1.14l-.82,1a2.89,2.89,0,0,0-1.95-.77c-.85,0-1.4.4-1.4,1.06s.69,1,1.43,1.26l1.21.51a2.49,2.49,0,0,1,1.81,2.43c0,1.45-1.21,2.66-3.22,2.66a4.61,4.61,0,0,1-3.22-1.32Z" fill="#000000"/><path class="cls-2" d="M253.13,73.7h5.38V75h-3.79v2.29h3.22v1.34h-3.22v2.64h3.93v1.34h-5.52Z" fill="#000000"/><path class="cls-2" d="M271.84,75h-2.59V73.7H276V75h-2.58v7.62h-1.59Z" fill="#000000"/><path class="cls-2" d="M286.93,80.42a3.57,3.57,0,0,0,2.34,1c1,0,1.56-.45,1.56-1.15s-.58-1-1.4-1.32l-1.22-.53a2.57,2.57,0,0,1-1.81-2.38,2.72,2.72,0,0,1,3-2.52,4,4,0,0,1,2.77,1.14l-.82,1a2.89,2.89,0,0,0-1.95-.77c-.85,0-1.4.4-1.4,1.06s.69,1,1.43,1.26l1.21.51a2.49,2.49,0,0,1,1.81,2.43c0,1.45-1.21,2.66-3.22,2.66A4.61,4.61,0,0,1,286,81.51Z" fill="#000000"/></g></g></svg>